<?xml version="1.0" encoding="UTF-8"?>
<svg version="1.1" xmlns="http://www.w3.org/2000/svg" width="1000" height="484">
<path d="M0 0 C1.39767403 1.18203289 2.77216203 2.39190475 4.125 3.625 C4.94355469 4.35203125 5.76210938 5.0790625 6.60546875 5.828125 C22.21066337 20.4653726 29.72718707 40.32699985 30.4375 61.4375 C29.96853249 83.65483597 20.94749302 104.31717427 4.921875 119.74609375 C-1.85656624 125.47549051 -9.55767227 129.74874398 -17.24169922 134.12353516 C-21.21309304 136.38795867 -25.16973853 138.67779916 -29.12841797 140.96435547 C-31.35460811 142.24974458 -33.58150928 143.53390296 -35.80908203 144.81689453 C-43.13863591 149.03854021 -50.44969343 153.29051845 -57.75 157.5625 C-67.01990856 162.98436242 -76.33331909 168.32705005 -85.66345215 173.64422607 C-94.77842768 178.84009254 -103.85889044 184.09227739 -112.91333008 189.39306641 C-120.44228069 193.7985106 -127.99959187 198.15316558 -135.5625 202.5 C-144.09055021 207.40526019 -152.54909306 212.38398719 -160.875 217.625 C-145.33266641 226.71431944 -129.75891147 235.74681577 -114.15722656 244.73388672 C-108.72840058 247.86180148 -103.30180719 250.99358448 -97.875 254.125 C-95.70834417 255.37501879 -93.5416775 256.62501878 -91.375 257.875 C-87.04166667 260.375 -82.70833333 262.875 -78.375 265.375 C-77.30233887 265.99383057 -76.22967773 266.61266113 -75.12451172 267.25024414 C-72.95942929 268.49935518 -70.79439018 269.74854129 -68.62939453 270.99780273 C-63.18884294 274.13702309 -57.74752784 277.27490563 -52.3046875 280.41015625 C-46.90087883 283.52328978 -41.49989275 286.64127275 -36.10058594 289.76220703 C-33.92251035 291.02005722 -31.74344854 292.27620102 -29.56347656 293.53076172 C-26.33147219 295.39119319 -23.10292937 297.25750931 -19.875 299.125 C-18.43423096 299.95173218 -18.43423096 299.95173218 -16.96435547 300.79516602 C3.68047967 312.77294578 19.83199487 327.38866977 27.12109375 350.828125 C32.3693702 370.81677599 30.84265491 391.57725799 21.3359375 410.11328125 C17.05092588 417.37731489 12.07665698 423.6627717 6.125 429.625 C5.51269531 430.24890625 4.90039062 430.8728125 4.26953125 431.515625 C-11.04947048 446.01804882 -31.42992874 451.11233532 -51.97265625 450.83984375 C-67.72719152 450.34913371 -81.17824086 443.88282342 -94.625 436.1875 C-96.24281372 435.27170166 -96.24281372 435.27170166 -97.89331055 434.33740234 C-106.18157088 429.63108514 -114.41966132 424.83886904 -122.64160156 420.01782227 C-130.35442244 415.49735676 -138.10719445 411.04993439 -145.875 406.625 C-155.59642984 401.08546897 -165.28395304 395.49124813 -174.94189453 389.84155273 C-185.46584625 383.68733258 -196.02880137 377.60130004 -206.59277344 371.51611328 C-212.02159942 368.38819852 -217.44819281 365.25641552 -222.875 362.125 C-225.04165583 360.87498121 -227.2083225 359.62498122 -229.375 358.375 C-251.04166667 345.875 -272.70833333 333.375 -294.375 320.875 C-295.9842334 319.9466333 -295.9842334 319.9466333 -297.62597656 318.99951172 C-299.78947476 317.75128966 -301.95288643 316.50291761 -304.11621094 315.25439453 C-309.58065017 312.10094744 -315.04663645 308.95023904 -320.515625 305.8046875 C-325.93524516 302.68723866 -331.34731288 299.5569386 -336.75732422 296.42285156 C-339.81125463 294.66175966 -342.8753662 292.91958911 -345.94140625 291.1796875 C-368.45246766 278.30626259 -385.39172072 263.41435382 -392.75 237.625 C-398.14776907 216.3072285 -394.08964869 195.69645728 -383.75 176.625 C-373.83626692 160.2801599 -359.00520236 151.12572234 -342.6875 142 C-341.46654605 141.3107093 -340.24601494 140.62066914 -339.02587891 139.92993164 C-337.1505878 138.86840884 -335.27507166 137.80731193 -333.39825439 136.74848938 C-327.15828244 133.22781102 -320.95213786 129.64935819 -314.75 126.0625 C-312.60158134 124.82158197 -310.45314384 123.58069654 -308.3046875 122.33984375 C-307.24475586 121.72737793 -306.18482422 121.11491211 -305.09277344 120.48388672 C-299.68829355 117.36175395 -294.28152588 114.24358796 -288.875 111.125 C-286.7083225 109.87501878 -284.54165583 108.62501879 -282.375 107.375 C-191.375 54.875 -191.375 54.875 -188.12451172 52.99975586 C-185.95942929 51.75064482 -183.79439018 50.50145871 -181.62939453 49.25219727 C-176.18884294 46.11297691 -170.74752784 42.97509437 -165.3046875 39.83984375 C-154.85293728 33.81752629 -144.41206147 27.77821004 -134 21.6875 C-121.79681611 14.55165357 -109.53009184 7.52831652 -97.23730469 0.5480957 C-94.88534879 -0.79712334 -92.54336125 -2.1533198 -90.20800781 -3.52661133 C-84.24582123 -7.01752007 -78.51290395 -10.26726863 -71.875 -12.3125 C-70.67875 -12.69277344 -69.4825 -13.07304687 -68.25 -13.46484375 C-44.79551906 -19.78995262 -19.37482726 -14.40343046 0 0 Z " fill="#4284F3" transform="translate(414.875,24.375)"/>
<path d="M0 0 C6.81179732 4.01372691 13.67575415 7.93300996 20.546875 11.84375 C30.26885998 17.3822941 39.95584136 22.97750965 49.61376953 28.62719727 C60.13772125 34.78141742 70.70067637 40.86744996 81.26464844 46.95263672 C86.69347442 50.08055148 92.12006781 53.21233448 97.546875 56.34375 C99.71353083 57.59376879 101.8801975 58.84376878 104.046875 60.09375 C134.38020833 77.59375 164.71354167 95.09375 195.046875 112.59375 C196.12042236 113.21306396 197.19396973 113.83237793 198.30004883 114.47045898 C200.45627713 115.71451792 202.61236549 116.95881942 204.76831055 118.20336914 C210.34353005 121.42131786 215.92144623 124.63447302 221.50390625 127.83984375 C227.86090823 131.49178627 234.20884422 135.15898166 240.546875 138.84375 C241.2780957 139.26769043 242.00931641 139.69163086 242.76269531 140.12841797 C262.52621934 151.65126731 278.04564827 167.30994252 283.984375 189.84375 C289.05889094 210.59692732 286.87105783 231.14125083 276.546875 249.84375 C274.08328559 253.69540657 271.4281946 257.29705351 268.546875 260.84375 C267.89589844 261.68679688 267.24492188 262.52984375 266.57421875 263.3984375 C257.73247047 274.06305103 244.67953921 280.2540548 232.84228516 286.97021484 C228.51718042 289.42916089 224.21101712 291.92023886 219.90454102 294.41162109 C216.64404046 296.29734825 213.38102237 298.17864427 210.1171875 300.05859375 C203.59201257 303.81730381 197.0692405 307.5801675 190.546875 311.34375 C188.38021917 312.59376879 186.2135525 313.84376878 184.046875 315.09375 C182.974375 315.7125 181.901875 316.33125 180.796875 316.96875 C134.21354167 343.84375 87.63020833 370.71875 41.046875 397.59375 C39.97397217 398.2127417 38.90106934 398.8317334 37.7956543 399.46948242 C35.63308917 400.7170974 33.47049161 401.96465616 31.30786133 403.2121582 C24.71729927 407.01400461 18.12799323 410.81801681 11.53955078 414.62353516 C8.28414047 416.50252586 5.0269598 418.37841708 1.76953125 420.25390625 C-2.27226702 422.58168614 -6.30544887 424.92335219 -10.33203125 427.27734375 C-32.88324419 440.41416387 -55.05528281 448.33907394 -81.23168945 441.82324219 C-92.6969682 438.59404178 -103.62842067 432.85995315 -112.453125 424.84375 C-113.18660156 424.20179688 -113.92007813 423.55984375 -114.67578125 422.8984375 C-129.33870349 409.26669848 -137.37346068 390.37242918 -138.66796875 370.5546875 C-139.28031017 348.85330763 -131.84887713 328.04486498 -116.89038086 312.1262207 C-106.12790453 301.21027514 -91.8594843 294.31628864 -78.6615448 286.81019592 C-72.57611754 283.34892633 -66.51450331 279.84690051 -60.453125 276.34375 C-58.28656412 275.09356666 -56.11989724 273.84356699 -53.953125 272.59375 C-52.880625 271.975 -51.808125 271.35625 -50.703125 270.71875 C-14.953125 250.09375 -14.953125 250.09375 -11.70214844 248.21826172 C-9.53865024 246.97003966 -7.37523857 245.72166761 -5.21191406 244.47314453 C0.25252517 241.31969744 5.71851145 238.16898904 11.1875 235.0234375 C25.0302679 227.05727792 38.81837641 219.0053445 52.546875 210.84375 C43.91994891 205.46442046 35.20550868 200.2943123 26.359375 195.28125 C23.88869903 193.87609523 21.41899394 192.46923727 18.94921875 191.0625 C18.32911926 190.70957382 17.70901978 190.35664764 17.07012939 189.99302673 C10.84049415 186.44590944 4.6293728 182.86695336 -1.578125 179.28125 C-3.17370239 178.35977173 -3.17370239 178.35977173 -4.80151367 177.41967773 C-6.94622087 176.18082777 -9.0908338 174.94181459 -11.23535156 173.70263672 C-16.63983145 170.58050395 -22.04659912 167.46233796 -27.453125 164.34375 C-29.6198025 163.09376878 -31.78646917 161.84376879 -33.953125 160.59375 C-35.561875 159.665625 -35.561875 159.665625 -37.203125 158.71875 C-40.453125 156.84375 -43.703125 154.96875 -46.953125 153.09375 C-48.02667236 152.47443604 -49.10021973 151.85512207 -50.20629883 151.21704102 C-52.36252713 149.97298208 -54.51861549 148.72868058 -56.67456055 147.48413086 C-62.24978005 144.26618214 -67.82769623 141.05302698 -73.41015625 137.84765625 C-79.76715823 134.19571373 -86.11509422 130.52851834 -92.453125 126.84375 C-93.1843457 126.41980957 -93.91556641 125.99586914 -94.66894531 125.55908203 C-114.43246934 114.03623269 -129.95189827 98.37755748 -135.890625 75.84375 C-141.30416326 53.70407785 -138.30156407 32.29319026 -126.640625 12.81640625 C-114.0136987 -5.51894298 -96.78942184 -17.09308756 -74.90771484 -21.75927734 C-45.72442176 -26.47899433 -24.18529831 -14.26842413 0 0 Z " fill="#0F9D57" transform="translate(696.453125,31.15625)"/>
<path d="M0 0 C1.39767403 1.18203289 2.77216203 2.39190475 4.125 3.625 C4.94355469 4.35203125 5.76210938 5.0790625 6.60546875 5.828125 C22.21066337 20.4653726 29.72718707 40.32699985 30.4375 61.4375 C29.96853249 83.65483597 20.94749302 104.31717427 4.921875 119.74609375 C-1.85656624 125.47549051 -9.55767227 129.74874398 -17.24169922 134.12353516 C-21.21309304 136.38795867 -25.16973853 138.67779916 -29.12841797 140.96435547 C-31.35460811 142.24974458 -33.58150928 143.53390296 -35.80908203 144.81689453 C-43.13863591 149.03854021 -50.44969343 153.29051845 -57.75 157.5625 C-67.01990856 162.98436242 -76.33331909 168.32705005 -85.66345215 173.64422607 C-94.77898707 178.84041141 -103.85880283 184.09493565 -112.91552734 189.39306641 C-121.53148587 194.43161344 -130.16334876 199.44242106 -138.82373047 204.40429688 C-143.38956734 207.02130943 -147.94334846 209.64089284 -152.4140625 212.41796875 C-153.05778809 212.81064941 -153.70151367 213.20333008 -154.36474609 213.60791016 C-155.96577993 214.58984797 -157.55397564 215.59264131 -159.140625 216.59765625 C-161.875 217.625 -161.875 217.625 -164.76171875 217.08203125 C-168.47141161 215.34587637 -171.94186644 213.37910967 -175.4375 211.25 C-176.95756496 210.33986131 -178.47843472 209.43106574 -180 208.5234375 C-180.79664063 208.04745117 -181.59328125 207.57146484 -182.4140625 207.08105469 C-186.55958452 204.62828749 -190.74940372 202.25408837 -194.9375 199.875 C-202.61205636 195.50674425 -210.25280664 191.08396783 -217.875 186.625 C-226.19824913 181.75642108 -234.54691003 176.93688298 -242.93041992 172.17285156 C-247.62692593 169.49877929 -252.30231973 166.79314745 -256.95703125 164.046875 C-281.42550675 149.61227615 -305.25320202 135.92785844 -334.671875 143.0090332 C-337.75450847 143.83003063 -340.81369816 144.72821864 -343.875 145.625 C-345.53720218 145.97992646 -347.20238771 146.32291223 -348.875 146.625 C-345.56961423 143.86753001 -342.28557543 141.59604527 -338.515625 139.5234375 C-336.97950562 138.6727771 -336.97950562 138.6727771 -335.41235352 137.80493164 C-334.32752686 137.2093042 -333.2427002 136.61367676 -332.125 136 C-324.85185707 131.96791726 -317.58749288 127.93486851 -310.4375 123.6875 C-303.46744414 119.55158363 -296.45998619 115.4837872 -289.4375 111.4375 C-288.33027588 110.79949463 -287.22305176 110.16148926 -286.08227539 109.50415039 C-283.81162932 108.19610523 -281.54087642 106.88824552 -279.27001953 105.58056641 C-273.8033002 102.43167946 -268.33925113 99.27816736 -262.875 96.125 C-260.70834689 94.8749765 -258.54168021 93.62497653 -256.375 92.375 C-255.3025 91.75625 -254.23 91.1375 -253.125 90.5 C-191.375 54.875 -191.375 54.875 -188.12451172 52.99975586 C-185.95942929 51.75064482 -183.79439018 50.50145871 -181.62939453 49.25219727 C-176.18884294 46.11297691 -170.74752784 42.97509437 -165.3046875 39.83984375 C-154.85293728 33.81752629 -144.41206147 27.77821004 -134 21.6875 C-121.79681611 14.55165357 -109.53009184 7.52831652 -97.23730469 0.5480957 C-94.88534879 -0.79712334 -92.54336125 -2.1533198 -90.20800781 -3.52661133 C-84.24582123 -7.01752007 -78.51290395 -10.26726863 -71.875 -12.3125 C-70.67875 -12.69277344 -69.4825 -13.07304687 -68.25 -13.46484375 C-44.79551906 -19.78995262 -19.37482726 -14.40343046 0 0 Z " fill="#E94335" transform="translate(414.875,24.375)"/>
<path d="M0 0 C2.2980957 1.0847168 2.2980957 1.0847168 4.67578125 2.44921875 C5.57337158 2.9601709 6.47096191 3.47112305 7.39575195 3.99755859 C8.35827881 4.55523926 9.32080566 5.11291992 10.3125 5.6875 C11.83460083 6.55882568 11.83460083 6.55882568 13.38745117 7.44775391 C22.56100103 12.71134707 31.69248676 18.04824468 40.8203125 23.390625 C55.86992291 32.19241057 70.98751616 40.87921703 86.14453125 49.49462891 C90.88263177 52.19443503 95.59389828 54.93433693 100.28515625 57.71484375 C101.3510498 58.34447021 102.41694336 58.97409668 103.51513672 59.62280273 C105.56592436 60.83632484 107.61337596 62.05551035 109.65673828 63.28149414 C127.45919741 73.80251304 148.11109184 78.78538282 168.56884766 73.61157227 C171.40016942 72.80656055 174.19744117 71.89927468 177 71 C178.66122228 70.64051507 180.3264103 70.29662504 182 70 C179.4916488 72.81784037 176.70077062 74.45723723 173.42578125 76.30078125 C172.29591797 76.94080078 171.16605469 77.58082031 170.00195312 78.24023438 C169.40133057 78.57756592 168.80070801 78.91489746 168.18188477 79.26245117 C164.98682938 81.05714011 161.80079863 82.86774975 158.61328125 84.67578125 C157.96634308 85.04212677 157.31940491 85.40847229 156.65286255 85.78591919 C150.73796765 89.13858954 144.86457489 92.56011988 139 96 C130.36543665 101.05700509 121.69392954 106.04607536 113 111 C103.27875494 116.53985933 93.59105132 122.13374932 83.93310547 127.78344727 C73.40915375 133.93766742 62.84619863 140.02369996 52.28222656 146.10888672 C46.85340058 149.23680148 41.42680719 152.36858448 36 155.5 C33.83334417 156.75001879 31.6666775 158.00001878 29.5 159.25 C28.4275 159.86875 27.355 160.4875 26.25 161.125 C5.66666667 173 -14.91666667 184.875 -35.5 196.75 C-36.5737085 197.36955566 -37.64741699 197.98911133 -38.75366211 198.62744141 C-40.9077421 199.86996179 -43.06219834 201.11183012 -45.21704102 202.35302734 C-50.23800521 205.24615504 -55.25526427 208.14510543 -60.25863647 211.06854248 C-62.01587382 212.09486345 -63.77434787 213.11903272 -65.53320312 214.14257812 C-67.72838285 215.42089564 -69.9212735 216.70315612 -72.11132812 217.99023438 C-80.25597008 222.72427482 -88.61359228 227.43261004 -97.8125 229.75 C-98.66457031 229.97171875 -99.51664063 230.1934375 -100.39453125 230.421875 C-121.74018784 235.15824258 -142.40787333 231.18655953 -161 220 C-164.23800678 217.87903486 -167.13685364 215.6008308 -170 213 C-170.73347656 212.35804688 -171.46695313 211.71609375 -172.22265625 211.0546875 C-186.88557849 197.42294848 -194.92033568 178.52867918 -196.21484375 158.7109375 C-196.82718517 137.00955763 -189.39575213 116.20111498 -174.43725586 100.2824707 C-163.67477953 89.36652514 -149.4063593 82.47253864 -136.2084198 74.96644592 C-130.12299254 71.50517633 -124.06137831 68.00315051 -118 64.5 C-115.83343912 63.24981666 -113.66677224 61.99981699 -111.5 60.75 C-110.4275 60.13125 -109.355 59.5125 -108.25 58.875 C-72.5 38.25 -72.5 38.25 -69.24902344 36.37451172 C-67.08552524 35.12628966 -64.92211357 33.87791761 -62.75878906 32.62939453 C-57.29434983 29.47594744 -51.82836355 26.32523904 -46.359375 23.1796875 C-45.26455811 22.54933594 -44.16974121 21.91898437 -43.04174805 21.26953125 C-40.86706042 20.01791247 -38.69145781 18.767882 -36.51489258 17.51953125 C-31.18627429 14.45438604 -25.89450653 11.34389098 -20.65234375 8.1328125 C-19.14365723 7.21556396 -19.14365723 7.21556396 -17.60449219 6.27978516 C-15.70811583 5.12272258 -13.81895231 3.95372516 -11.93847656 2.77099609 C-11.09639648 2.25875488 -10.25431641 1.74651367 -9.38671875 1.21875 C-8.29170044 0.5371582 -8.29170044 0.5371582 -7.17456055 -0.15820312 C-4.33046448 -1.25918474 -2.88809399 -0.90809471 0 0 Z " fill="#FABB04" transform="translate(754,243)"/>
</svg>
